<?xml version="1.0" standalone="no"?>
<!DOCTYPE svg PUBLIC "-//W3C//DTD SVG 20010904//EN"
 "http://www.w3.org/TR/2001/REC-SVG-20010904/DTD/svg10.dtd">
<svg version="1.0" xmlns="http://www.w3.org/2000/svg"
 width="28.000000pt" height="45.000000pt" viewBox="0 0 28.000000 45.000000"
 preserveAspectRatio="xMidYMid meet">

<g transform="translate(0.000000,45.000000) scale(0.100000,-0.100000)"
fill="#000000" stroke="none">
<path d="M85 398 c6 -49 3 -59 -40 -143 -39 -75 -46 -97 -42 -129 18 -138 195
-169 260 -45 23 44 17 110 -17 177 -29 58 -117 166 -147 183 -20 10 -20 9 -14
-43z m135 -140 c56 -105 42 -192 -37 -224 -65 -27 -133 7 -154 76 -12 38 -10
44 34 132 26 51 47 106 47 123 l0 29 39 -38 c22 -21 54 -66 71 -98z"/>
<path d="M199 121 c-7 -19 -21 -33 -40 -40 -28 -9 -41 -31 -19 -31 37 0 90 54
90 90 0 22 -22 8 -31 -19z"/>
</g>
</svg>
