<?xml version="1.0" standalone="no"?>
<!DOCTYPE svg PUBLIC "-//W3C//DTD SVG 20010904//EN"
 "http://www.w3.org/TR/2001/REC-SVG-20010904/DTD/svg10.dtd">
<svg version="1.0" xmlns="http://www.w3.org/2000/svg"
 width="45.000000pt" height="45.000000pt" viewBox="0 0 45.000000 45.000000"
 preserveAspectRatio="xMidYMid meet">

<g transform="translate(0.000000,45.000000) scale(0.100000,-0.100000)"
fill="#000000" stroke="none">
<path d="M262 436 c113 -33 173 -106 173 -211 0 -215 -283 -292 -392 -107 -58
98 -26 229 70 286 23 14 37 26 31 26 -20 0 -78 -45 -101 -79 -102 -151 1 -345
182 -345 129 0 219 90 219 219 0 116 -75 202 -189 219 -39 6 -38 5 7 -8z"/>
<path d="M145 393 c-68 -36 -105 -95 -105 -168 0 -104 81 -185 185 -185 112 0
191 87 183 201 -5 68 -38 118 -98 149 -47 24 -123 26 -165 3z m101 -10 c-6
-16 -6 -16 11 0 17 15 21 15 58 -8 22 -13 48 -37 58 -54 l18 -31 -90 0 c-90 0
-102 5 -79 28 6 6 9 14 6 18 -3 3 -19 -18 -34 -46 -26 -48 -29 -50 -42 -33
-18 24 -54 94 -50 98 46 41 157 63 144 28z m-107 -124 c22 -40 41 -76 41 -81
0 -5 -28 -8 -62 -6 l-63 3 -3 47 c-3 46 18 108 37 108 5 0 27 -32 50 -71z
m135 -7 c12 -24 12 -31 0 -55 -21 -39 -68 -38 -89 3 -14 27 -14 32 1 55 23 36
69 34 88 -3z m124 -24 c3 -40 -18 -108 -33 -108 -5 0 -85 145 -85 154 0 4 26
6 58 4 l57 -3 3 -47z m-57 -90 l19 -37 -44 -26 c-30 -18 -56 -25 -78 -23 l-34
3 44 79 c50 88 49 88 93 4z m-116 -25 c-15 -27 -31 -52 -36 -57 -12 -13 -92
38 -112 73 l-18 31 96 0 97 0 -27 -47z"/>
</g>
</svg>
