<?xml version="1.0" standalone="no"?>
<!DOCTYPE svg PUBLIC "-//W3C//DTD SVG 20010904//EN"
 "http://www.w3.org/TR/2001/REC-SVG-20010904/DTD/svg10.dtd">
<svg version="1.0" xmlns="http://www.w3.org/2000/svg"
 width="45.000000pt" height="45.000000pt" viewBox="0 0 45.000000 45.000000"
 preserveAspectRatio="xMidYMid meet">

<g transform="translate(0.000000,45.000000) scale(0.100000,-0.100000)"
fill="#000000" stroke="none">
<path d="M219 427 c-3 -23 -12 -32 -43 -42 -50 -18 -93 -61 -111 -111 -10 -30
-19 -40 -42 -45 l-28 -6 28 -4 c23 -3 32 -12 42 -43 18 -50 61 -93 111 -111
30 -10 40 -19 45 -42 l6 -28 4 28 c3 23 12 32 43 42 50 18 93 61 111 111 10
30 19 40 42 45 l28 6 -28 4 c-23 3 -32 12 -42 43 -18 50 -61 93 -111 111 -30
10 -40 19 -45 42 l-6 28 -4 -28z m64 -61 c104 -43 127 -180 42 -255 -61 -53
-139 -53 -201 1 -128 112 2 320 159 254z"/>
<path d="M185 350 c-8 -13 15 -13 35 0 12 8 11 10 -7 10 -12 0 -25 -4 -28 -10z"/>
<path d="M130 320 c-23 -23 -40 -61 -40 -88 0 -9 11 5 25 32 13 27 29 53 37
57 7 4 10 11 6 14 -3 4 -16 -3 -28 -15z"/>
<path d="M181 306 c-13 -7 -30 -24 -37 -37 -51 -92 72 -183 146 -109 43 43 32
118 -21 145 -34 18 -57 18 -88 1z m39 -41 c0 -33 -2 -35 -35 -35 -41 0 -46 19
-15 50 31 31 50 26 50 -15z m60 15 c31 -31 26 -50 -15 -50 -33 0 -35 2 -35 35
0 41 19 46 50 15z m-60 -95 c0 -41 -19 -46 -50 -15 -31 31 -26 50 15 50 33 0
35 -2 35 -35z m80 20 c0 -19 -36 -55 -55 -55 -10 0 -15 11 -15 35 0 33 2 35
35 35 24 0 35 -5 35 -15z"/>
</g>
</svg>
